<svg xmlns="http://www.w3.org/2000/svg" xmlns:xlink="http://www.w3.org/1999/xlink" viewBox="0 0 1365.7 639.8"><defs><linearGradient id="b" x1="430.8" y1="197.7" x2="1480.8" y2="376.3" gradientUnits="userSpaceOnUse"><stop offset="0" stop-color="#aaa9b2"/><stop offset="1" stop-color="#90919c"/></linearGradient><linearGradient id="a" x1="159.6" y1="44.4" x2="1094.1" y2="443.5" gradientUnits="userSpaceOnUse"><stop offset="0" stop-color="#4adec2"/><stop offset="1" stop-color="#007cc3"/></linearGradient><linearGradient id="c" x1="190.4" y1="-27.9" x2="1125" y2="371.1" xlink:href="#a"/><linearGradient id="d" x1="236.4" y1="-135.6" x2="1170.9" y2="263.4" xlink:href="#a"/><linearGradient id="e" y1="411.5" x2="1365.7" y2="411.5" gradientUnits="userSpaceOnUse"><stop offset="0" stop-color="#534e55"/><stop offset="1" stop-color="#413f4a"/></linearGradient><linearGradient id="f" y1="437" x2="1188.7" y2="437" gradientUnits="userSpaceOnUse"><stop offset="0" stop-color="#363032"/><stop offset="1" stop-color="#1b1718"/></linearGradient></defs><path d="M1365.7 262.6v258.3L1211.2 460c-15.6-2.6-28.8-12.4-43-19.3-33.4-16.3-78-21.3-93.6-55-4.3-9.2-6-20.1-13.6-26.8-14-12.4-36-2-54.4-4.6-22.7-3.2-37.1-25-55.8-38.2-31-21.9-74.6-20.2-103.8-44.4-18.3-15.1-32.8-40.8-56.4-39.5-30.7 1.8-37.1 43.7-56 67.9-4 5-9.9 9.7-16 8.3-5-1.1-8.2-5.8-12.6-8.4-21.5-12.8-40 29-65 27.7-16-.8-24.6-18.5-30-33.6a166.8 166.8 0 0 1-67.2 26.3 153 153 0 0 0-84.6-51.8c-13.5-3-28.6-4.7-39.8-11.9a73.2 73.2 0 0 1 42.4-17c8.4-.2 16.7 1.4 25 1.1 24.3-.8 45.2-17.5 69.1-21.7 15.1-2.6 30.6-.2 45.9.4a190.5 190.5 0 0 0 99-23.4c4.8-2.6 10-5.6 15.4-4.9 6.6.8 11.4 6.4 17.1 9.5 14.2 7.5 31-1 45.5-7.7a201.8 201.8 0 0 1 124-14.6c-1.8 3 2.2 6.5 5.5 5.8s5.6-3.6 7.8-6.2c12-13.7 29.9-20.5 47.3-25.6 40.2-11.9 83.7-18 123.8-6a99.2 99.2 0 0 1 47.2 28.7c4.8 5.7 9 12.2 15.7 15.5 12.2 6.1 28.4-.9 39.7 6.7 5 3.3 8 9 12.2 13.3 18.4 19.7 50.5 10.6 77.4 12.7 31.9 2.4 58.7 22.1 86.3 39.3z" fill="url(#b)"/><path d="M465 202.4V4.2h-70L278.4 196.7v54.5H404v68.3h61v-68.3h36v-48.8zM404 65.7v136.7h-79.2z" fill="url(#a)"/><path d="M724.2 42.7Q699.8 0 639.2 0t-85 42.7q-24.4 42.6-24.4 121.2a388.6 388.6 0 0 0 3.5 54q5.7 40.5 21 67a81 81 0 0 0 16.6 20.6q24.9 21.8 68.4 21.8 49.5 0 74.9-28.3a83.6 83.6 0 0 0 10-14.1q19.3-33.5 23.4-89.5 1.1-15 1-31.5 0-78.6-24.4-121.2zM602.5 79q9-27.6 36.7-27.6T675.7 79q8.6 27.6 8.6 84.9 0 17.4-.9 32.2-1.8 31.7-7.7 51.5-8.7 29-36.5 29t-36.7-29q-4.6-14.8-6.9-36.4a461.3 461.3 0 0 1-2.1-47.3q0-57.3 9-84.9z" fill="url(#c)"/><path d="M963.5 202.4V4.2h-70l-107.3 177-9.3 15.5v54.5h125.6v68.3h61v-68.3h35.9v-48.8zm-140.2 0l20.3-35 58.9-101.7v136.7z" fill="url(#d)"/><path d="M1365.7 517.9l-.3 121.9h-177c-3-7.4-6-9.4-11.8-14.7a57.7 57.7 0 0 0-23.2-11.2c-50.7-14.9-107.7-19.8-154-42a150 150 0 0 1-46.1-32.8c-28.2-29.8-50.3-77.1-91.3-75-10 .4-19.4 4.2-29 6.4a103.6 103.6 0 0 1-82.4-16c-13.7-9.8-25.2-23-40.4-30-13.6-6.3-29-7.1-44.1-7.6-40.4-1.3-81.6-1.2-122.4-2.9-74.3-3-147.3-12.1-211.7-47.5-13.7-7.5-27-16.2-41.8-21a171 171 0 0 0-50.7-5.6l-98-1.2c-11-.1-22.8-.4-32.6-5.6-10.7-5.8-17.6-16.5-24-26.7-11.4-18-23-36.4-39.7-49.8A73.3 73.3 0 0 0 0 239.1v-56a301.3 301.3 0 0 0 113.8 13.2c7.6-.6 15.6-1.3 22.4 2.1 11.5 5.9 14.4 21 22.9 31 11.5 13.4 31.5 15 49.3 15.4l71 2 43.7 1.3c16.1.5 33.6.5 46.4-9.2 7-5.4 13.8-14 22.5-12.6 9 1.4 12.6 12 18.1 19a33.4 33.4 0 0 0 9.3 8.3c11.3 7.1 26.3 9 39.8 11.8l6.9 1.7a153 153 0 0 1 77.8 50.1 165 165 0 0 0 28-6.8A167 167 0 0 0 611 291c5.4 15 14.1 32.8 30 33.6 25 1.3 43.6-40.5 65-27.7 3.3 2 6 5 9.1 7a12 12 0 0 0 3.5 1.4c6.2 1.5 12.1-3.3 16-8.3 16-20.4 23-53.5 43.3-64.3a30.2 30.2 0 0 1 12.7-3.5c17.8-1 30.5 13.3 43.5 27a153.8 153.8 0 0 0 12.9 12.3c16 13.3 36.2 18.8 56.4 24.6 16.7 4.9 33.4 10 47.4 19.9a143 143 0 0 1 13.7 11.3c12.9 11.8 25.2 24.5 42 26.9 18.6 2.6 40.6-7.9 54.5 4.5 7.6 6.7 9.3 17.7 13.6 26.9 15.5 33.7 60.2 38.7 93.6 55 14.1 6.9 27.4 16.7 43 19.3z" fill="url(#e)"/><path d="M1188.7 639.8H0V234.2c16.1 0 32.5 7 45.2 17.4 16.6 13.4 28.3 31.8 39.6 49.8 6.5 10.2 13.4 21 24.1 26.7 9.8 5.2 21.5 5.4 32.6 5.6l98 1.2c17 .2 34.4.4 50.7 5.7 14.9 4.7 28.1 13.4 41.8 20.9 64.4 35.4 137.4 44.5 211.8 47.5 40.8 1.7 82 1.5 122.3 2.9 15 .5 30.5 1.3 44 7.6 15.3 7 26.8 20.2 40.5 30a103.6 103.6 0 0 0 82.3 16c9.7-2.3 19.2-6 29.2-6.5 41-2 63 45.3 91.1 75.1a152 152 0 0 0 46.2 32.8c46.3 22.1 103.3 27 154 42a57.7 57.7 0 0 1 23.1 11.2 51.5 51.5 0 0 1 12.2 19.7z" fill="url(#f)"/></svg>