<svg xmlns="http://www.w3.org/2000/svg">
  <symbol id="icon-star" viewBox="0 0 10 10">
    <polygon points="5,0 6.5,3 10,3.5 7.5,6 8,10 5,8.5 2,10 2.5,6 0,3.5 3.5,3" />
  </symbol>
  <symbol id="icon-heart" viewBox="0 0 12 12">
    <path d="M6 2C4.5.5 2 .5 1 2s-.5 3.5 1 5l4 4 4-4c1.5-1.5 2-3.5 1-5s-3.5-1.5-5 0z" />
  </symbol>
  <symbol id="icon-thumb-up" viewBox="0 0 8 8">
    <path d="M4.47 0c-.19.02-.37.15-.47.34-.13.26-1.09 2.19-1.28 2.38-.19.19-.44.28-.72.28v4h3.5c.21 0 .39-.13.47-.31 0 0 1.03-2.91 1.03-3.19 0-.28-.22-.5-.5-.5h-1.5c-.28 0-.5-.25-.5-.5s.39-1.58.47-1.84c.08-.26-.05-.54-.31-.63-.07-.02-.12-.04-.19-.03zm-4.47 3v4h1v-4h-1z" />
  </symbol>
</svg>
